<?xml version="1.0" standalone="no"?><!DOCTYPE svg PUBLIC "-//W3C//DTD SVG 1.1//EN" "http://www.w3.org/Graphics/SVG/1.1/DTD/svg11.dtd"><svg t="1725011802547" class="icon" viewBox="0 0 1024 1024" version="1.1" xmlns="http://www.w3.org/2000/svg" p-id="8421" xmlns:xlink="http://www.w3.org/1999/xlink" width="200" height="200"><path d="M68.235636 1024.046545a68.282182 68.282182 0 0 1-68.142545-63.115636v-244.084364a34.117818 34.117818 0 0 1 34.071273-34.071272 34.117818 34.117818 0 0 1 34.164363 34.071272v204.8a34.117818 34.117818 0 0 0 34.071273 34.071273h204.8a34.164364 34.164364 0 0 1 34.164364 34.164364 34.164364 34.164364 0 0 1-34.164364 34.164363z m897.163637-10.100363l-51.479273-51.479273-1.722182 1.256727a190.836364 190.836364 0 0 1-222.673454-6.469818 190.836364 190.836364 0 0 1-65.163637-212.898909A190.836364 190.836364 0 0 1 805.236364 614.4a191.255273 191.255273 0 0 1 169.239272 102.4 190.836364 190.836364 0 0 1-12.101818 197.306182l51.618909 51.572363a34.210909 34.210909 0 0 1 0 48.221091 34.024727 34.024727 0 0 1-24.157091 10.053819 34.071273 34.071273 0 0 1-24.389818-10.100364z m-282.856728-208.384a122.833455 122.833455 0 0 0 122.926546 122.833454 122.833455 122.833455 0 0 0 122.833454-122.833454 122.786909 122.786909 0 0 0-122.833454-122.833455 122.786909 122.786909 0 0 0-122.88 122.554182z m-507.345454-9.960727a341.783273 341.783273 0 0 1 244.736-271.080728 204.8 204.8 0 0 1-107.566546-230.260363 204.8 204.8 0 0 1 199.354182-157.649455 204.8 204.8 0 0 1 199.354182 157.649455 204.8 204.8 0 0 1-107.659636 230.353454 335.127273 335.127273 0 0 1 95.185454 43.147637 256 256 0 0 0-138.752 318.277818c-16.849455 1.024-33.047273 1.489455-48.128 1.489454-128.558545-0.093091-341.131636-34.257455-336.244363-91.973818zM955.345455 307.293091v-204.8a34.117818 34.117818 0 0 0-34.071273-34.164364h-204.8a34.164364 34.164364 0 0 1-34.164364-34.164363 34.117818 34.117818 0 0 1 34.164364-34.071273h238.824727a68.328727 68.328727 0 0 1 68.142546 63.162182v244.037818a34.117818 34.117818 0 0 1-34.071273 34.024727 34.117818 34.117818 0 0 1-33.792-34.071273z m-955.578182 0V68.328727A68.282182 68.282182 0 0 1 62.929455 0.186182h243.898181a34.117818 34.117818 0 0 1 34.164364 34.071273 34.164364 34.164364 0 0 1-34.164364 34.164363h-204.8a34.117818 34.117818 0 0 0-34.071272 34.164364v204.8a34.117818 34.117818 0 0 1-34.164364 34.024727A34.071273 34.071273 0 0 1 0 307.246545z" p-id="8422"></path></svg>