<?xml version="1.0" standalone="no"?><!DOCTYPE svg PUBLIC "-//W3C//DTD SVG 1.1//EN" "http://www.w3.org/Graphics/SVG/1.1/DTD/svg11.dtd"><svg t="1724997324806" class="icon" viewBox="0 0 1024 1024" version="1.1" xmlns="http://www.w3.org/2000/svg" p-id="7001" xmlns:xlink="http://www.w3.org/1999/xlink" width="200" height="200"><path d="M274.602667 305.578667l185.685333-139.946667A186.965333 186.965333 0 0 1 637.44 140.8l295.338667 111.957333c19.029333 7.168 15.189333 6.229333 49.152 18.773334 15.701333 3.584 20.906667 2.645333 21.333333 16.64v359.68a51.2 51.2 0 0 1-29.354667 45.568 65.024 65.024 0 0 1-48.128 0L581.632 278.016a28.416 28.416 0 0 0-35.84-6.4l-157.098667 87.04a119.466667 119.466667 0 0 1-103.082666 5.290667 35.584 35.584 0 0 1-18.432-46.250667 15.872 15.872 0 0 1 7.509333-12.032z" p-id="7002"></path><path d="M31.402667 672.853333h55.381333l39.338667-47.36a100.266667 100.266667 0 0 1 140.032-12.8 102.4 102.4 0 0 1 32.512 49.493334 97.877333 97.877333 0 0 1 69.290666 67.754666 95.914667 95.914667 0 0 1 57.514667 45.226667 100.693333 100.693333 0 0 1 55.381333 27.989333 101.717333 101.717333 0 0 1 14.165334 122.709334l-5.461334 9.728v1.109333a57.514667 57.514667 0 0 0 79.274667-13.994667 55.125333 55.125333 0 0 0 8.533333-42.666666V878.933333h0.938667l4.437333 4.266667a59.733333 59.733333 0 0 0 73.642667 7.509333 56.405333 56.405333 0 0 0 22.784-57.088v-1.024h1.536l4.437333 4.266667a59.733333 59.733333 0 0 0 73.984 7.424 56.917333 56.917333 0 0 0 23.893334-57.088v-0.938667h1.109333l4.437333 4.266667a58.197333 58.197333 0 0 0 69.461334 8.533333 56.064 56.064 0 0 0 19.626666-77.568 69.205333 69.205333 0 0 0-6.4-8.533333l-34.730666-41.984-281.6-339.114667a10.069333 10.069333 0 0 0-12.032-2.133333l-134.570667 74.325333a170.666667 170.666667 0 0 1-141.738667 10.752 91.050667 91.050667 0 0 1-55.381333-53.845333 93.866667 93.866667 0 0 1 9.728-76.8 12.8 12.8 0 0 0-5.461333-17.066667 14.08 14.08 0 0 0-6.4-1.109333H26.026667a25.6 25.6 0 0 0-25.6 24.832v358.4a36.266667 36.266667 0 0 0 31.488 23.552z" p-id="7003"></path><path d="M226.901333 646.826667a49.152 49.152 0 0 0-62.976 12.8l-37.802666 46.592a47.274667 47.274667 0 0 0 6.4 66.730666h1.109333l5.461333 4.266667a50.090667 50.090667 0 0 0 53.248 4.266667c1.109333-1.109333 2.133333 0 3.157334 1.109333v2.133333a47.530667 47.530667 0 0 0 17.066666 46.250667l4.437334 3.157333a50.432 50.432 0 0 0 52.138666 5.290667 2.048 2.048 0 0 1 3.157334 1.109333v1.109334a48.810667 48.810667 0 0 0 18.432 42.666666l3.157333 2.133334a46.08 46.08 0 0 0 52.138667 4.266666 2.048 2.048 0 0 1 3.157333 1.109334v1.109333a48.981333 48.981333 0 0 0 18.432 30.208l2.133333 1.109333a48.725333 48.725333 0 0 0 68.266667-8.533333 20.309333 20.309333 0 0 1 4.437333-5.290667l6.4-11.861333a48.725333 48.725333 0 0 0-8.533333-61.354667 50.432 50.432 0 0 0-53.248-8.533333c-1.109333 0-1.109333 0-2.133333-1.109333v-1.109334a49.664 49.664 0 0 0-45.653334-50.517333 63.061333 63.061333 0 0 0-19.626666 3.157333c-7.594667 1.109333-5.461333-5.290667-5.461334-5.290666a47.786667 47.786667 0 0 0-25.6-62.464 50.432 50.432 0 0 0-41.216 2.133333c-5.461333 1.109333-4.437333-4.266667-4.437333-4.266667a43.52 43.52 0 0 0-16.128-62.208z" p-id="7004"></path></svg>