<?xml version="1.0" standalone="no"?><!DOCTYPE svg PUBLIC "-//W3C//DTD SVG 1.1//EN" "http://www.w3.org/Graphics/SVG/1.1/DTD/svg11.dtd"><svg t="1725168467411" class="icon" viewBox="0 0 1089 1024" version="1.1" xmlns="http://www.w3.org/2000/svg" p-id="50183" xmlns:xlink="http://www.w3.org/1999/xlink" width="212.6953125" height="200"><path d="M450.37037 440.888889V991.604938c0 18.17284-15.012346 32.395062-32.395061 32.395062H32.395062c-18.17284 0-32.395062-14.222222-32.395062-32.395062V440.888889c1.580247-29.234568 18.17284-69.530864 86.91358-99.555556 15.012346-6.320988 30.024691-11.061728 42.666667-14.222222V182.518519l0.790123-0.790124c0-0.790123 0.790123-1.580247 0.790124-2.37037l18.962963-56.888889a32.316049 32.316049 0 0 1-22.123457-30.024692V32.395062c0-18.17284 15.012346-32.395062 32.395062-32.395062h129.580247c18.17284 0 32.395062 14.222222 32.395061 32.395062v60.049382a31.604938 31.604938 0 0 1-21.333333 30.024692l19.753086 56.888889v2.37037c0.790123 0 0.790123 0 0.790124 0.790124v144.592592c11.851852 3.160494 27.654321 7.901235 43.45679 15.012346 67.160494 29.234568 82.962963 70.320988 85.333333 98.765432zM64.790123 830.419753h320.790124V538.864198H64.790123z m154.074075-706.37037L207.012346 158.024691h37.925926l-12.641976-33.975308z m38.716049 196.74074V222.024691h-64.790124v98.765432zM64.790123 444.049383v30.814815h321.580247v-30.814815c-2.37037-19.753086-26.864198-34.765432-46.617284-43.45679-22.91358-9.481481-45.82716-14.222222-52.938271-15.80247H163.555556c-7.111111 1.580247-30.814815 6.320988-53.728396 16.592593-19.753086 8.691358-43.45679 22.91358-45.037037 42.666667z m320.790124 515.160494v-64H64.790123v64z m653.432099-252.049383c-39.506173 52.938272-111.407407 86.123457-190.419753 85.333333v98.765432l131.950617 65.580247c13.432099 6.320988 26.074074 26.074074 19.753086 39.506173-6.320988 13.432099-19.753086 26.074074-33.185185 26.074074H664.493827c-13.432099 0-26.864198-12.641975-33.185185-26.074074 0-19.753086 6.320988-33.185185 19.753086-39.506173l131.160494-65.580247v-98.765432c-71.901235-7.111111-137.481481-39.506173-183.308642-92.444444-19.753086-25.283951-33.185185-52.148148-39.506173-85.333334V608.395062c-6.320988-26.074074-6.320988-45.82716 0-72.691358l19.753087-176.987655c0-13.432099 13.432099-26.864198 32.395062-26.864197h421.135802c19.753086 0 33.185185 7.111111 33.185185 26.864197l19.753087 176.987655c12.641975 60.049383-7.111111 119.308642-46.617284 171.45679z m-421.135803-158.024692v13.432099c19.753086-6.320988 52.938272-6.320988 85.333334-6.320987 59.259259 0 98.765432 13.432099 118.518518 19.753086h13.432099s7.111111 6.320988 13.432099 6.320988c18.962963 13.432099 45.82716 19.753086 91.654321 19.753086 46.617284 0 72.691358 0 85.333333-6.320988v-46.617284l-18.962963-150.91358H643.950617z m33.185185 112.197531c39.506173 45.82716 105.876543 72.691358 171.456791 72.691358 65.580247 0 124.839506-26.864198 164.345679-65.580247h-52.938272c-59.259259 0-91.654321-13.432099-111.407407-13.432098-7.111111-6.320988-6.320988-6.320988-13.432099-6.320988-7.111111 0-7.111111-6.320988-13.432099-6.320988-19.753086-13.432099-45.82716-19.753086-92.444444-19.753086-33.185185 0-59.259259 6.320988-72.691358 6.320988 7.111111 12.641975 13.432099 19.753086 20.543209 32.395061z" p-id="50184"></path></svg>