<?xml version="1.0" standalone="no"?><!DOCTYPE svg PUBLIC "-//W3C//DTD SVG 1.1//EN" "http://www.w3.org/Graphics/SVG/1.1/DTD/svg11.dtd"><svg t="1725169478466" class="icon" viewBox="0 0 1024 1024" version="1.1" xmlns="http://www.w3.org/2000/svg" p-id="63687" xmlns:xlink="http://www.w3.org/1999/xlink" width="200" height="200"><path d="M512 455.111111c157.013333 0 284.444444-101.831111 284.444444-227.555555 0-31.288889-25.6-56.888889-56.888888-56.888889s-56.888889 25.6-56.888889 56.888889c0 62.577778-76.231111 113.777778-170.666667 113.777777s-170.666667-51.2-170.666667-113.777777c0-31.288889-25.6-56.888889-56.888889-56.888889s-56.888889 25.6-56.888888 56.888889c0 125.724444 127.431111 227.555556 284.444444 227.555555z m398.222222-455.111111H113.777778C51.2 0 0 51.2 0 113.777778v796.444444c0 62.577778 51.2 113.777778 113.777778 113.777778h796.444444c62.577778 0 113.777778-51.2 113.777778-113.777778V113.777778c0-62.577778-51.2-113.777778-113.777778-113.777778z m0 910.222222H113.777778V113.777778h796.444444v796.444444zM284.444444 853.333333h455.111112c31.288889 0 56.888889-25.6 56.888888-56.888889s-25.6-56.888889-56.888888-56.888888H284.444444c-31.288889 0-56.888889 25.6-56.888888 56.888888s25.6 56.888889 56.888888 56.888889z m0-170.666666h455.111112c31.288889 0 56.888889-25.6 56.888888-56.888889s-25.6-56.888889-56.888888-56.888889H284.444444c-31.288889 0-56.888889 25.6-56.888888 56.888889s25.6 56.888889 56.888888 56.888889z" p-id="63688"></path></svg>