<?xml version="1.0" standalone="no"?><!DOCTYPE svg PUBLIC "-//W3C//DTD SVG 1.1//EN" "http://www.w3.org/Graphics/SVG/1.1/DTD/svg11.dtd"><svg t="1725123027961" class="icon" viewBox="0 0 1181 1024" version="1.1" xmlns="http://www.w3.org/2000/svg" p-id="49112" xmlns:xlink="http://www.w3.org/1999/xlink" width="230.6640625" height="200"><path d="M964.017231 848.580923L942.198154 870.4c-24.221538 24.221538-55.729231 36.352-89.678769 36.352h-63.015385c-58.171077 0-121.186462-46.040615-121.186462-126.030769V720.147692c0-48.462769 21.819077-77.548308 33.949539-94.523077l261.750154-266.594461c7.286154-7.286154 14.532923-24.241231 14.532923-33.929846V123.904c0-63.015385-53.307077-116.322462-116.322462-116.322462H241.762462c-63.015385 0-116.342154 58.151385-116.342154 116.322462H86.646154c-43.618462 0-77.548308 36.352-77.548308 79.990154 0 43.618462 33.929846 77.548308 77.548308 77.548308h38.793846v157.538461H86.646154c-43.618462 0-77.548308 33.929846-77.548308 77.568 0 43.618462 33.929846 77.548308 77.548308 77.548308h38.793846v157.538461H86.646154c-43.618462 0-77.548308 36.352-77.548308 77.568 0 43.618462 33.929846 77.548308 77.548308 77.548308h38.793846c0 77.568 53.307077 116.342154 116.322462 116.342154h620.46523c63.015385 0 116.322462-53.326769 116.322462-116.342154v-50.884923c0-12.130462-4.844308-14.552615-14.532923-7.286154zM765.282462 300.839385c0 21.819077-16.974769 38.793846-38.793847 38.793846H338.707692a38.281846 38.281846 0 0 1-38.793846-38.793846v-38.793847c0-21.799385 16.974769-38.774154 38.793846-38.774153h387.780923c21.819077 0 38.793846 16.974769 38.793847 38.793846v38.774154zM590.769231 771.032615c0 21.819077-16.974769 38.793846-38.793846 38.793847H338.707692a38.281846 38.281846 0 0 1-38.793846-38.793847v-38.793846c0-21.799385 16.974769-38.774154 38.793846-38.774154h213.267693c21.819077 0 38.793846 16.974769 38.793846 38.793847v38.774153z m58.171077-235.106461c0 21.819077-16.974769 38.793846-38.793846 38.793846H338.707692a38.281846 38.281846 0 0 1-38.793846-38.793846v-38.774154c0-21.819077 16.974769-38.793846 38.793846-38.793846h271.458462c21.799385 0 38.774154 16.974769 38.774154 38.793846v38.793846z m511.40923-106.633846l-24.260923-24.221539a38.045538 38.045538 0 0 0-53.307077 0L787.081846 710.419692c-2.422154 0-2.422154 4.844308-2.422154 4.844308v65.437538c0 4.844308 0 9.688615 4.844308 9.688616h63.015385c2.422154 0 4.844308-2.422154 7.286153-2.422154L1157.907692 487.463385c19.396923-16.974769 19.396923-41.196308 2.422154-58.171077z" p-id="49113" data-spm-anchor-id="a313x.search_index.0.i41.7add3a81TfaYyC" class="selected"></path></svg>