<?xml version="1.0" standalone="no"?><!DOCTYPE svg PUBLIC "-//W3C//DTD SVG 1.1//EN" "http://www.w3.org/Graphics/SVG/1.1/DTD/svg11.dtd"><svg t="1725025374837" class="icon" viewBox="0 0 1024 1024" version="1.1" xmlns="http://www.w3.org/2000/svg" p-id="18596" xmlns:xlink="http://www.w3.org/1999/xlink" width="200" height="200"><path d="M664.119717 1023.896592a34.590053 34.590053 0 0 1-21.922545-7.755617l-78.331734-43.84509a60.390406 60.390406 0 0 1-23.421964-63.234133 56.874527 56.874527 0 0 0 3.412471-27.713406v-1.034082l-4.39485-7.600505-0.827265-0.723857a91.774804 91.774804 0 0 0-27.868518-13.598183 58.580762 58.580762 0 0 1-44.517244-49.584246v-0.87897a149.941934 149.941934 0 0 1-5.79086-50.618329v-0.310224a158.266296 158.266296 0 0 1 6.101085-51.704116 71.817016 71.817016 0 0 1 44.000202-47.567786l0.517041-0.310224a173.312194 173.312194 0 0 0 29.212825-19.027115l1.551124-1.189194 0.361929-1.861348a52.583085 52.583085 0 0 0-2.37839-26.524211l-1.034082-3.877809a70.059076 70.059076 0 0 1 25.852058-61.476193l82.209543-44.517243a71.972128 71.972128 0 0 1 25.852057-4.911891 69.697147 69.697147 0 0 1 46.016663 17.165766 107.80308 107.80308 0 0 0 27.196364 19.027115l2.223277 1.13749 2.378389-1.13749a110.801919 110.801919 0 0 0 25.852058-19.027115l0.672153-0.87897a44.879172 44.879172 0 0 1 37.6923-15.821459 77.556173 77.556173 0 0 1 24.973088 3.877809l79.831154 44.879172a59.459732 59.459732 0 0 1 25.852057 62.820499 52.789902 52.789902 0 0 0-2.223277 29.419642v0.827266l4.39485 7.497097 0.827266 0.723857a90.275385 90.275385 0 0 0 26.317395 13.44307 57.908609 57.908609 0 0 1 42.293966 44.672356l2.01646 9.151628a238.200858 238.200858 0 0 1 5.170412 46.895632 267.361979 267.361979 0 0 1-3.929513 39.398536 29.884979 29.884979 0 0 0-1.447715 8.117546v0.930674a71.196567 71.196567 0 0 1-44.517243 51.704115h-0.517041a184.480283 184.480283 0 0 0-28.902601 19.182227l-1.551123 1.189195-0.361929 1.861348a49.946175 49.946175 0 0 0 1.861348 25.852057v3.877809a70.317597 70.317597 0 0 1-25.852058 62.044938l-77.556172 44.310427a51.031962 51.031962 0 0 1-25.335017 6.463014h-2.223277a59.149508 59.149508 0 0 1-43.328048-18.716889 105.993436 105.993436 0 0 0-27.196365-18.820298l-2.378389-1.189195-2.223277 1.344307a112.146226 112.146226 0 0 0-25.852057 18.665186 69.283514 69.283514 0 0 1-43.638274 18.716889h-0.361928a28.9026 28.9026 0 0 1-4.756779 0.258521z m82.726584-103.098006a121.866599 121.866599 0 0 1 67.577279 30.608836l2.740318 2.533502 66.439788-40.225802v-6.618126a110.026357 110.026357 0 0 1 9.513557-71.196567 98.237819 98.237819 0 0 1 57.908609-44.672355l3.722696-1.189195v-8.841404a157.800959 157.800959 0 0 0 3.412472-23.060035v-0.87897a153.612926 153.612926 0 0 0-3.412472-22.439586V731.923454c-0.517041-2.63691-1.034082-5.170412-1.344307-7.652209v-1.654532l-5.584044-5.584044-8.996516-4.601667h-0.361929a112.921787 112.921787 0 0 1-51.704115-38.519565 114.783136 114.783136 0 0 1-7.807322-72.385762l0.672154-3.567584-65.405706-39.760464-6.101085 5.170411a91.206059 91.206059 0 0 1-131.638677-1.861348l-2.533502-2.430093-65.405706 31.953143-3.567584 1.861348 0.827266 3.877809a115.351881 115.351881 0 0 1-8.16925 73.419843 133.655138 133.655138 0 0 1-64.371623 48.084827l-2.37839 1.034083-0.672153 2.585205a120.729109 120.729109 0 0 0-3.205655 33.142338V763.514668a133.448321 133.448321 0 0 1 3.567584 24.662863v2.01646l5.170411 5.170412 7.135168 3.929513 1.034082 0.517041h1.861349a115.09336 115.09336 0 0 1 50.773441 38.002524 121.608079 121.608079 0 0 1 8.324362 72.695986l-0.672153 3.567584 70.162484 39.605352 6.463014-4.601666a125.537592 125.537592 0 0 1 65.715931-27.506589z m-383.59283 101.443474h-296.781621a66.439788 66.439788 0 0 1-66.439788-67.628982V66.439788A66.491492 66.491492 0 0 1 66.47185 0H954.64514a66.439788 66.439788 0 0 1 66.232971 66.439788V398.742136a37.744004 37.744004 0 1 1-75.436304 0v-82.726584H75.468366v630.790204h287.785105a37.744004 37.744004 0 0 1 0 75.436304zM75.468366 75.332896v165.453168h869.973441v-165.453168z m668.482505 791.486594a111.887705 111.887705 0 1 1 0-223.723706h0.310224a111.887705 111.887705 0 0 1-0.310224 223.723706z m0.310224-159.352083a47.722898 47.722898 0 1 0 47.205858 47.412674v-5.170412h-0.672154a47.774602 47.774602 0 0 0-46.533704-42.293966z m-442.380409 29.057713h-129.260287a37.020146 37.020146 0 1 1 0-74.040293h129.260287a37.020146 37.020146 0 1 1 0 74.040293z m129.622217-197.354608H172.413582a37.071851 37.071851 0 1 1 0-74.091996h259.089321a37.071851 37.071851 0 1 1 0 74.091996z" p-id="18597"></path></svg>