<?xml version="1.0" standalone="no"?><!DOCTYPE svg PUBLIC "-//W3C//DTD SVG 1.1//EN" "http://www.w3.org/Graphics/SVG/1.1/DTD/svg11.dtd"><svg t="1725097301608" class="icon" viewBox="0 0 1024 1024" version="1.1" xmlns="http://www.w3.org/2000/svg" p-id="44704" xmlns:xlink="http://www.w3.org/1999/xlink" width="200" height="200"><path d="M629.523 399.748c0 18.81 15.25 34.06 34.06 34.06s34.06-15.25 34.06-34.06c1.69-103.19-80.6-188.21-183.79-189.9-103.19-1.69-188.21 80.6-189.9 183.79-0.03 2.03-0.03 4.07 0 6.11v0.8c-1.02 18.8 13.4 34.86 32.19 35.88 18.8 1.02 34.86-13.4 35.88-32.19 0.07-1.23 0.07-2.46 0-3.68v-0.6c0-65.6 53.18-118.77 118.77-118.77s118.77 53.18 118.77 118.77l-0.04-0.21z" p-id="44705"></path><path d="M830.643 401.728c1.85-116.71-58.6-225.56-158.65-285.69-99.38-59.04-223.08-59.04-322.46 0-100.04 60.13-160.48 168.99-158.64 285.69 1.01 18.47 16.79 32.62 35.26 31.61 17.06-0.93 30.68-14.55 31.61-31.61a258.098 258.098 0 0 1 74.08-181.7c96.4-98.79 254.63-100.72 353.41-4.32 1.46 1.42 2.9 2.87 4.32 4.32a258.055 258.055 0 0 1 74.08 182.05c-0.71 18.48 13.69 34.04 32.17 34.75 18.48 0.71 34.04-13.69 34.75-32.17 0.03-0.86 0.03-1.72 0-2.58l0.07-0.35z" p-id="44706"></path><path d="M903.433 591.828h-346.55v-155.66c-1.11-23.93-20.76-42.8-44.72-42.93-23.95 0.13-43.61 19-44.72 42.93v155.66h-346.6a55.531 55.531 0 0 0-39.75 16.6 56.987 56.987 0 0 0-16.4 40.05v253.39c-0.22 31.09 24.8 56.47 55.89 56.69h782.55c31.06-0.03 56.22-25.23 56.2-56.29v-253.9c0.19-31.06-24.83-56.4-55.89-56.59v0.05z m-700.56 228.55c-16.6 0.83-32.29-7.6-40.74-21.91a45.81 45.81 0 0 1 0-46.75 44.687 44.687 0 0 1 40.74-21.91c23.9 1.45 42.5 21.32 42.38 45.26 0.12 23.94-18.48 43.81-42.38 45.26v0.05z m135.49 0c-16.6 0.83-32.29-7.6-40.74-21.91a45.81 45.81 0 0 1 0-46.75 44.687 44.687 0 0 1 40.74-21.91c23.9 1.45 42.5 21.32 42.38 45.26 0.12 23.94-18.48 43.81-42.38 45.26v0.05z" p-id="44707"></path></svg>