<?xml version="1.0" standalone="no"?><!DOCTYPE svg PUBLIC "-//W3C//DTD SVG 1.1//EN" "http://www.w3.org/Graphics/SVG/1.1/DTD/svg11.dtd"><svg t="1725025271324" class="icon" viewBox="0 0 1024 1024" version="1.1" xmlns="http://www.w3.org/2000/svg" p-id="16457" xmlns:xlink="http://www.w3.org/1999/xlink" width="200" height="200"><path d="M611.254857 219.428571h-52.224a10.715429 10.715429 0 0 0-10.459428 10.971429v87.771429c0 6.070857 4.681143 10.971429 10.459428 10.971428h52.224A10.715429 10.715429 0 0 0 621.714286 318.171429V230.4c0-6.070857-4.681143-10.971429-10.459429-10.971429zM464.969143 219.428571h-52.224a10.715429 10.715429 0 0 0-10.459429 10.971429v87.771429c0 6.070857 4.681143 10.971429 10.459429 10.971428h52.224A10.715429 10.715429 0 0 0 475.428571 318.171429V230.4c0-6.070857-4.681143-10.971429-10.459428-10.971429zM757.540571 219.428571h-52.224a10.715429 10.715429 0 0 0-10.459428 10.971429v87.771429c0 6.070857 4.681143 10.971429 10.459428 10.971428h52.224A10.715429 10.715429 0 0 0 768 318.171429V230.4c0-6.070857-4.681143-10.971429-10.459429-10.971429zM318.683429 219.428571H266.459429A10.715429 10.715429 0 0 0 256 230.4v87.771429c0 6.070857 4.681143 10.971429 10.459429 10.971428h52.224A10.715429 10.715429 0 0 0 329.142857 318.171429V230.4c0-6.070857-4.681143-10.971429-10.459428-10.971429zM266.459429 621.714286h52.224A10.715429 10.715429 0 0 0 329.142857 610.742857v-87.771428c0-6.070857-4.681143-10.971429-10.459428-10.971429H266.459429a10.715429 10.715429 0 0 0-10.459429 10.971429v87.771428c0 6.070857 4.681143 10.971429 10.459429 10.971429zM412.745143 621.714286h52.224a10.715429 10.715429 0 0 0 10.459428-10.971429v-87.771428c0-6.070857-4.681143-10.971429-10.459428-10.971429h-52.224a10.715429 10.715429 0 0 0-10.459429 10.971429v87.771428c0 6.070857 4.681143 10.971429 10.459429 10.971429zM559.030857 621.714286h52.224a10.715429 10.715429 0 0 0 10.459429-10.971429v-87.771428c0-6.070857-4.681143-10.971429-10.459429-10.971429h-52.224a10.715429 10.715429 0 0 0-10.459428 10.971429v87.771428c0 6.070857 4.681143 10.971429 10.459428 10.971429zM705.316571 621.714286h52.224a10.715429 10.715429 0 0 0 10.459429-10.971429v-87.771428c0-6.070857-4.681143-10.971429-10.459429-10.971429h-52.224a10.715429 10.715429 0 0 0-10.459428 10.971429v87.771428c0 6.070857 4.681143 10.971429 10.459428 10.971429zM600.832 841.142857h78.336c8.667429 0 15.689143-3.291429 15.689143-7.314286v-58.514285c0-4.022857-7.021714-7.314286-15.689143-7.314286H600.868571c-8.667429 0-15.689143 3.291429-15.689142 7.314286v58.514285c0 4.022857 7.021714 7.314286 15.689142 7.314286z" p-id="16458"></path><path d="M809.142857 73.142857H214.857143A68.498286 68.498286 0 0 0 146.285714 141.531429v672.548571c0 37.778286 30.72 68.388571 68.571429 68.388571h77.056v45.604572c0 12.580571 7.570286 22.784 19.017143 22.784 11.410286 0 18.212571-10.203429 18.212571-22.784V882.468571h365.714286v45.604572c0 12.580571 9.325714 22.784 19.748571 22.784 10.386286 0 17.664-10.203429 17.664-22.784V882.468571h76.873143A68.498286 68.498286 0 0 0 877.714286 814.08V141.531429C877.714286 103.753143 846.994286 73.142857 809.142857 73.142857z m33.353143 738.816c0 20.187429-24.539429 28.781714-42.532571 28.781714H225.536c-17.993143 0-41.325714-8.594286-41.325714-28.781714v-73.142857c0-20.187429 23.332571-36.571429 41.325714-36.571429h574.427429c17.993143 0 42.532571 16.384 42.532571 36.571429v73.142857z m-21.028571-152.978286H220.964571c-14.884571 0-35.584-18.907429-35.584-33.243428v-220.525714h658.285715v230.656a22.784 22.784 0 0 1-22.198857 23.113142z m-1.609143-298.349714H183.259429v-219.428571c0-13.970286 18.651429-31.634286 33.170285-31.634286h596.626286c14.482286 0 28.233143 17.664 28.233143 31.634286v219.428571h-21.430857z" p-id="16459"></path></svg>