<?xml version="1.0" standalone="no"?><!DOCTYPE svg PUBLIC "-//W3C//DTD SVG 1.1//EN" "http://www.w3.org/Graphics/SVG/1.1/DTD/svg11.dtd"><svg t="1725203450002" class="icon" viewBox="0 0 1024 1024" version="1.1" xmlns="http://www.w3.org/2000/svg" p-id="65634" xmlns:xlink="http://www.w3.org/1999/xlink" width="200" height="200"><path d="M499.712043 908.800403H204.801075a109.055618 109.055618 0 0 1-111.615609-102.399641V174.594973a102.399642 102.399642 0 0 1 102.399641-102.399642h573.437993a107.519624 107.519624 0 0 1 102.399642 102.399642v307.198925a34.815878 34.815878 0 1 0 70.143755 0v-307.198925A173.055394 173.055394 0 0 0 772.607088 0.003584H204.801075A179.199373 179.199373 0 0 0 24.577706 174.594973v622.077823A173.055394 173.055394 0 0 0 199.169095 972.800179h293.374973a33.279884 33.279884 0 0 0 34.815878-34.815878 25.59991 25.59991 0 0 0-28.159901-28.159901z m0 0" p-id="65635"></path><path d="M730.623235 300.546532H248.320923a44.543844 44.543844 0 0 0-34.815878 34.815878 45.055842 45.055842 0 0 0 34.815878 34.815878h482.302312a32.767885 32.767885 0 0 0 34.815878-34.815878 32.767885 32.767885 0 0 0-34.815878-34.815878z m0-153.599462H248.320923a37.375869 37.375869 0 0 0-34.815878 34.815878 37.375869 37.375869 0 0 0 34.815878 34.815878h482.302312a32.767885 32.767885 0 0 0 34.815878-34.815878 32.767885 32.767885 0 0 0-34.815878-34.815878z m237.567168 698.877554L870.398746 748.032966A223.743217 223.743217 0 0 0 730.623235 460.801971a231.42319 231.42319 0 0 0-167.423414 7.679973 46.079839 46.079839 0 0 0-13.823952 51.199821 6.655977 6.655977 0 0 0 7.167975 7.167975l76.799731 76.799731-51.199821 51.199821L506.880018 573.441577a43.007849 43.007849 0 0 0-51.199821 7.167975v7.167975a222.71922 222.71922 0 0 0 111.615609 293.374973l62.97578 20.991926a47.615833 47.615833 0 0 0 41.983853-28.159901 47.615833 47.615833 0 0 0-28.159901-41.983853A153.599462 153.599462 0 0 1 512 671.233235l55.807805 55.807804a33.791882 33.791882 0 0 0 51.19982 0L716.799283 629.249382a43.007849 43.007849 0 0 0-7.167975-51.199821l-55.807804-55.807805a153.599462 153.599462 0 0 1 160.767437 146.943486 115.199597 115.199597 0 0 1-13.823952 70.143754 46.079839 46.079839 0 0 0 7.167975 41.983853L921.598566 894.976452a34.815878 34.815878 0 1 1-51.19982 51.19982l-111.61561-111.615609a34.815878 34.815878 0 1 0-51.199821 51.199821L819.198925 992.768109a102.399642 102.399642 0 1 0 146.943486-146.943485z m0 0" p-id="65636"></path></svg>