<?xml version="1.0" standalone="no"?><!DOCTYPE svg PUBLIC "-//W3C//DTD SVG 1.1//EN" "http://www.w3.org/Graphics/SVG/1.1/DTD/svg11.dtd"><svg t="1725203498794" class="icon" viewBox="0 0 1024 1024" version="1.1" xmlns="http://www.w3.org/2000/svg" p-id="66741" xmlns:xlink="http://www.w3.org/1999/xlink" width="200" height="200"><path d="M817.152 576.256l110.848 191.872L817.152 960H595.648l-110.784-191.872 110.784-191.872h221.504z m-562.624-439.68v35.264c0 26.944 23.552 48.832 52.544 48.832h345.792c28.992 0 52.544-21.888 52.544-48.832v-35.328h23.168c57.088 0 103.424 42.944 103.424 96v263.296H537.6l-151.872 263.488L501.632 960H256a128 128 0 0 1-128-128V232.512c0-53.056 46.272-96 103.36-96h23.168v0.064z m451.904 554.496a77.056 77.056 0 1 0 0 154.112 77.056 77.056 0 0 0 0-154.112z m-42.176-353.216H295.68a32 32 0 0 0 0 64h368.576a32 32 0 0 0 0-64zM607.744 64a32 32 0 0 1 32 32v47.808a32 32 0 0 1-32 32H352.192a32 32 0 0 1-32-32V96a32 32 0 0 1 32-32h255.552z" p-id="66742"></path></svg>